<svg width="637" height="531" viewBox="0 0 637 531" fill="none" xmlns="http://www.w3.org/2000/svg">
<path d="M491.7 481.099V465.126H483C481.8 457.538 478.8 450.55 474.5 444.56L480.6 438.47L469.3 427.189L463.2 433.279C457.2 428.986 450.2 425.991 442.6 424.793V416.107H426.6V424.793C419 425.991 412 428.986 406 433.279L399.9 427.189L388.6 438.47L394.7 444.56C390.4 450.55 387.4 457.538 386.2 465.126H377.5V481.099H386.2C387.4 488.686 390.4 495.675 394.7 501.665L388.6 507.755L399.9 519.036L406 512.946C412 517.239 419 520.234 426.6 521.432V530.117H442.6V521.432C450.2 520.234 457.2 517.239 463.2 512.946L469.3 519.036L480.6 507.755L474.5 501.665C478.8 495.675 481.8 488.686 483 481.099H491.7ZM434.5 510.25C414 510.25 397.3 493.678 397.3 473.112C397.3 452.647 413.9 435.974 434.5 435.974C455 435.974 471.7 452.547 471.7 473.112C471.7 493.578 455.1 510.25 434.5 510.25Z" fill="#D0D8F9"/>
<path d="M227 107.324V85.6593H215.3C213.6 75.3764 209.6 65.8923 203.7 57.7059L212 49.4197L196.6 34.0453L188.3 42.3315C180.2 36.5412 170.7 32.448 160.3 30.7508V19.0703H138.6V30.7508C128.3 32.448 118.8 36.4414 110.6 42.3315L102.3 34.0453L87 49.4197L95.3 57.7059C89.5 65.7924 85.4 75.2766 83.7 85.6593H72V107.324H83.8C85.5 117.606 89.5 127.091 95.4 135.277L87.1 143.563L102.5 158.938L110.8 150.651C118.9 156.442 128.4 160.535 138.7 162.232V173.913H160.4V162.232C170.7 160.535 180.2 156.542 188.4 150.651L196.7 158.938L212.1 143.563L203.8 135.277C209.6 127.19 213.7 117.706 215.4 107.324H227ZM149.5 152.848C118.3 152.848 93 127.59 93 96.4413C93 65.2933 118.3 40.0354 149.5 40.0354C180.7 40.0354 206 65.2933 206 96.4413C206 127.59 180.7 152.848 149.5 152.848Z" fill="#D0D8F9"/>
<path d="M427.802 476.706C427.802 490.383 416.602 501.564 402.902 501.564H218.802C205.102 501.564 193.902 490.383 193.902 476.706V83.0617C193.902 69.3845 205.102 58.2031 218.802 58.2031H402.902C416.602 58.2031 427.802 69.3845 427.802 83.0617V476.706Z" fill="#464FEB"/>
<path d="M422.602 476.706C422.602 490.383 411.402 501.564 397.702 501.564H213.502C199.802 501.564 188.602 490.383 188.602 476.706V83.0617C188.602 69.3845 199.802 58.2031 213.502 58.2031H397.602C411.302 58.2031 422.502 69.3845 422.502 83.0617V476.706H422.602Z" fill="#6D84FC"/>
<path d="M305.6 490.485C314.768 490.485 322.2 483.064 322.2 473.912C322.2 464.759 314.768 457.34 305.6 457.34C296.432 457.34 289 464.759 289 473.912C289 483.064 296.432 490.485 305.6 490.485Z" fill="white"/>
<path d="M338.302 86.3538C338.302 88.3504 336.702 89.9478 334.702 89.9478H276.502C274.502 89.9478 272.902 88.3504 272.902 86.3538C272.902 84.3571 274.502 82.7598 276.502 82.7598H334.702C336.702 82.7598 338.302 84.3571 338.302 86.3538Z" fill="white"/>
<path d="M305.601 75.673C307.423 75.673 308.901 74.1981 308.901 72.3785C308.901 70.559 307.423 69.084 305.601 69.084C303.778 69.084 302.301 70.559 302.301 72.3785C302.301 74.1981 303.778 75.673 305.601 75.673Z" fill="white"/>
<path d="M411.303 98.9375H199.703V448.455H411.303V98.9375Z" fill="#E8EBFF"/>
<path d="M199.703 448.555L411.403 98.9375V448.555H199.703Z" fill="#D5DCF9"/>
<path d="M372.302 197.472H238.902C226.502 197.472 216.402 187.389 216.402 175.01V141.865C216.402 129.486 226.502 119.402 238.902 119.402H372.302C384.702 119.402 394.802 129.486 394.802 141.865V175.01C394.802 187.389 384.702 197.472 372.302 197.472ZM238.902 124.694C229.402 124.694 221.702 132.381 221.702 141.865V175.01C221.702 184.494 229.402 192.181 238.902 192.181H372.302C381.802 192.181 389.502 184.494 389.502 175.01V141.865C389.502 132.381 381.802 124.694 372.302 124.694H238.902Z" fill="white"/>
<path d="M295.702 266.856C295.702 278.137 286.502 287.321 275.202 287.321H239.402C228.102 287.321 218.902 278.137 218.902 266.856V228.12C218.902 216.839 228.102 207.654 239.402 207.654H275.202C286.502 207.654 295.702 216.839 295.702 228.12V266.856Z" fill="#B1C6FA"/>
<path d="M391.702 266.856C391.702 278.137 382.502 287.321 371.202 287.321H335.402C324.102 287.321 314.902 278.137 314.902 266.856V228.12C314.902 216.839 324.102 207.654 335.402 207.654H371.202C382.502 207.654 391.702 216.839 391.702 228.12V266.856Z" fill="#B1C6FA"/>
<path d="M275.302 382.362H239.502C226.802 382.362 216.402 371.98 216.402 359.301V320.565C216.402 307.887 226.802 297.504 239.502 297.504H275.302C288.002 297.504 298.402 307.887 298.402 320.565V359.301C298.402 371.98 288.002 382.362 275.302 382.362ZM239.502 302.795C229.702 302.795 221.702 310.782 221.702 320.565V359.301C221.702 369.085 229.702 377.071 239.502 377.071H275.302C285.102 377.071 293.102 369.085 293.102 359.301V320.565C293.102 310.782 285.102 302.795 275.302 302.795H239.502Z" fill="white"/>
<path d="M371.201 382.362H335.401C322.701 382.362 312.301 371.98 312.301 359.301V320.565C312.301 307.887 322.701 297.504 335.401 297.504H371.201C383.901 297.504 394.301 307.887 394.301 320.565V359.301C394.301 371.98 383.901 382.362 371.201 382.362ZM335.401 302.795C325.601 302.795 317.601 310.782 317.601 320.565V359.301C317.601 369.085 325.601 377.071 335.401 377.071H371.201C381.001 377.071 389.001 369.085 389.001 359.301V320.565C389.001 310.782 381.001 302.795 371.201 302.795H335.401Z" fill="white"/>
<path d="M391.804 409.721C391.804 419.704 382.904 427.89 371.904 427.89H238.904C228.004 427.89 219.004 419.704 219.004 409.721C219.004 399.737 227.904 391.551 238.904 391.551H371.904C382.804 391.551 391.804 399.737 391.804 409.721Z" fill="#B1C6FA"/>
<path d="M249.1 231.715L264.2 251.682L272.5 240.8L285.3 257.572H268.7H259.8H229.5L249.1 231.715Z" fill="white"/>
<path d="M265.202 239.301C266.914 239.301 268.302 237.915 268.302 236.206C268.302 234.497 266.914 233.111 265.202 233.111C263.489 233.111 262.102 234.497 262.102 236.206C262.102 237.915 263.489 239.301 265.202 239.301Z" fill="white"/>
<path d="M344.998 231.715L360.198 251.682L368.498 240.8L381.198 257.572H364.598H355.698H325.398L344.998 231.715Z" fill="white"/>
<path d="M361.1 239.301C362.812 239.301 364.2 237.915 364.2 236.206C364.2 234.497 362.812 233.111 361.1 233.111C359.388 233.111 358 234.497 358 236.206C358 237.915 359.388 239.301 361.1 239.301Z" fill="white"/>
<path d="M336.002 107.621C326.902 107.621 319.602 115.009 319.602 123.994V155.741C319.602 164.826 327.002 172.114 336.002 172.114H463.502C472.602 172.114 479.902 164.726 479.902 155.741V124.094C479.902 115.009 472.502 107.721 463.502 107.721H336.002V107.621Z" fill="#6CE2FC"/>
<path d="M340.602 113.412C333.102 113.412 327.102 119.502 327.102 126.89V152.946C327.102 160.434 333.202 166.424 340.602 166.424H365.902C373.402 166.424 379.402 160.334 379.402 152.946V126.89C379.402 119.402 373.302 113.412 365.902 113.412H340.602Z" fill="white"/>
<path d="M345.801 128.287V151.648L360.601 139.768L345.801 128.287Z" fill="#6D84FC"/>
<path d="M407.7 116.408H389.5V118.305H407.7V116.408Z" fill="#464FEB"/>
<path d="M462.099 116.408H415.199V118.305H462.099V116.408Z" fill="#464FEB"/>
<path d="M403.6 122.896H389.5V124.793H403.6V122.896Z" fill="#464FEB"/>
<path d="M445.698 122.896H409.398V124.793H445.698V122.896Z" fill="#464FEB"/>
<path d="M405.8 129.285H389.5V131.182H405.8V129.285Z" fill="#464FEB"/>
<path d="M454.602 129.285H412.602V131.182H454.602V129.285Z" fill="#464FEB"/>
<path d="M402.2 135.676H389.5V137.573H402.2V135.676Z" fill="#464FEB"/>
<path d="M439.998 135.676H407.398V137.573H439.998V135.676Z" fill="#464FEB"/>
<path d="M409.1 142.166H389.5V144.063H409.1V142.166Z" fill="#464FEB"/>
<path d="M467.402 142.166H417.102V144.063H467.402V142.166Z" fill="#464FEB"/>
<path d="M404.7 148.553H389.5V150.45H404.7V148.553Z" fill="#464FEB"/>
<path d="M449.898 148.553H410.898V150.45H449.898V148.553Z" fill="#464FEB"/>
<path d="M407 154.945H389.5V156.842H407V154.945Z" fill="#464FEB"/>
<path d="M459.401 154.945H414.301V156.842H459.401V154.945Z" fill="#464FEB"/>
<path d="M403.1 161.434H389.5V163.33H403.1V161.434Z" fill="#464FEB"/>
<path d="M443.699 161.434H408.699V163.33H443.699V161.434Z" fill="#464FEB"/>
<path d="M226.499 290.915C226.499 300.898 218.299 309.085 208.299 309.085H176.399C166.399 309.085 158.199 300.898 158.199 290.915V256.472C158.199 246.489 166.399 238.303 176.399 238.303H208.299C218.299 238.303 226.499 246.489 226.499 256.472V290.915Z" fill="#403181"/>
<path d="M185.102 269.151L175.702 272.545L185.102 275.939V279.434L171.602 274.342V270.648L185.102 265.557V269.151Z" fill="white"/>
<path d="M195.202 258.768H199.102L189.802 285.323H185.902L195.202 258.768Z" fill="white"/>
<path d="M213.102 270.849V274.543L199.602 279.634V276.14L209.002 272.746L199.602 269.352V265.857L213.102 270.849Z" fill="white"/>
<path d="M574.902 268.453V260.067H570.402C569.702 256.074 568.202 252.48 565.902 249.285L569.102 246.091L563.202 240.201L560.002 243.395C556.902 241.099 553.202 239.602 549.202 238.903V234.41H540.802V238.903C536.802 239.602 533.202 241.099 530.002 243.395L526.802 240.201L520.902 246.091L524.102 249.285C521.802 252.38 520.302 256.074 519.602 260.067H515.102V268.453H519.602C520.302 272.447 521.802 276.041 524.102 279.235L520.902 282.43L526.802 288.32L530.002 285.126C533.102 287.422 536.802 288.919 540.802 289.618V294.111H549.202V289.618C553.202 288.919 556.802 287.422 560.002 285.126L563.202 288.32L569.102 282.43L565.902 279.235C568.202 276.141 569.702 272.447 570.402 268.453H574.902ZM545.102 283.728C534.402 283.728 525.602 275.042 525.602 264.26C525.602 253.578 534.302 244.793 545.102 244.793C555.802 244.793 564.602 253.478 564.602 264.26C564.502 275.042 555.802 283.728 545.102 283.728Z" fill="#D0D8F9"/>
<path d="M500.801 305.135V300.043H498.001C497.601 297.647 496.701 295.351 495.301 293.454L497.301 291.457L493.701 287.863L491.701 289.86C489.801 288.462 487.601 287.564 485.101 287.164V284.369H480.001V287.164C477.601 287.564 475.301 288.562 473.401 289.86L471.401 287.863L467.801 291.457L469.801 293.454C468.401 295.351 467.501 297.547 467.101 300.043H464.301V305.135H467.101C467.501 307.531 468.401 309.827 469.801 311.724L467.801 313.72L471.401 317.314L473.401 315.318C475.301 316.715 477.501 317.614 480.001 318.013V320.808H485.101V318.013C487.501 317.614 489.801 316.715 491.701 315.318L493.701 317.314L497.301 313.72L495.301 311.724C496.701 309.827 497.601 307.63 498.001 305.135H500.801ZM482.601 313.021C476.801 313.021 472.101 308.329 472.101 302.539C472.101 296.748 476.801 292.056 482.601 292.056C488.401 292.056 493.101 296.748 493.101 302.539C493.101 308.329 488.401 313.021 482.601 313.021Z" fill="#D0D8F9"/>
<path d="M499.101 372.127C499.101 385.305 488.301 396.187 475.001 396.187H432.901C419.701 396.187 408.801 385.405 408.801 372.127V326.603C408.801 313.425 419.601 302.543 432.901 302.543H475.001C488.201 302.543 499.101 313.325 499.101 326.603V372.127Z" fill="#FFD740"/>
<path d="M198 505.182C198 514.999 186.069 523.128 171.312 523.128H124.688C110.088 523.128 98 515.105 98 505.182V471.19C98 461.373 109.931 453.244 124.688 453.244H171.312C185.912 453.244 198 461.267 198 471.19V505.182Z" fill="#FF4081"/>
<path d="M116.801 349.519V344.428H114.001C113.601 342.032 112.701 339.736 111.301 337.839L113.301 335.842L109.701 332.248L107.701 334.245C105.801 332.847 103.601 331.949 101.101 331.549V328.754H96.0008V331.549C93.6008 331.949 91.3008 332.847 89.4008 334.245L87.4008 332.248L83.8008 335.842L85.8008 337.839C84.4008 339.736 83.5008 341.932 83.1008 344.428H80.3008V349.519H83.1008C83.5008 351.915 84.4008 354.211 85.8008 356.108L83.8008 358.105L87.4008 361.699L89.4008 359.702C91.3008 361.1 93.5008 361.998 96.0008 362.398V365.193H101.101V362.398C103.501 361.998 105.801 361.1 107.701 359.702L109.701 361.699L113.301 358.105L111.301 356.108C112.701 354.211 113.601 352.015 114.001 349.519H116.801ZM98.7008 357.406C92.9008 357.406 88.2008 352.714 88.2008 346.924C88.2008 341.133 92.9008 336.441 98.7008 336.441C104.501 336.441 109.201 341.133 109.201 346.924C109.201 352.714 104.501 357.406 98.7008 357.406Z" fill="#D0D8F9"/>
<path d="M604 71.883C604 81.7105 595.04 89.8503 583.978 89.8503H549.022C538.071 89.8503 529 81.8097 529 71.883V37.934C529 28.1066 537.96 19.9668 549.022 19.9668H583.978C594.929 19.9668 604 28.0074 604 37.934V71.883Z" fill="#FFD740"/>
<path d="M99 177.428C99 188.551 89.2757 197.671 77.4142 197.671H39.5858C27.7243 197.671 18 188.551 18 177.428V139.046C18 127.923 27.7243 118.803 39.5858 118.803H77.4142C89.2757 118.803 99 127.923 99 139.046V177.428Z" fill="#40A540"/>
<path d="M562.302 461.83C562.302 472.213 553.802 480.798 543.302 480.798H510.102C499.702 480.798 491.102 472.313 491.102 461.83V425.99C491.102 415.607 499.602 407.021 510.102 407.021H543.302C553.702 407.021 562.302 415.507 562.302 425.99V461.83Z" fill="#40A540"/>
<path d="M243.399 419.103H110.399C98.9992 419.103 89.6992 410.518 89.6992 400.035C89.6992 389.552 98.9992 380.967 110.399 380.967H243.399C254.799 380.967 264.099 389.552 264.099 400.035C264.099 410.518 254.799 419.103 243.399 419.103ZM110.299 382.764C99.7992 382.764 91.2992 390.551 91.2992 400.035C91.2992 409.619 99.7992 417.306 110.299 417.306H243.299C253.799 417.306 262.299 409.519 262.299 400.035C262.299 390.451 253.799 382.764 243.299 382.764H110.299Z" fill="#464FEB"/>
<path d="M126.7 408.819L122 404.126C121.6 403.727 120.9 403.627 120.4 403.727L118.4 401.73C121.1 398.635 120.9 393.843 118 390.848C114.9 387.754 109.8 387.754 106.7 390.848C103.6 393.943 103.6 399.035 106.7 402.13C109.7 405.125 114.4 405.224 117.5 402.529L119.5 404.526C119.3 405.025 119.4 405.724 119.9 406.123L124.6 410.815C125.2 411.414 126.2 411.414 126.8 410.815C127.4 410.416 127.4 409.418 126.7 408.819ZM116.3 400.632C114.1 402.828 110.5 402.828 108.2 400.632C106 398.436 106 394.842 108.2 392.546C110.4 390.349 114 390.349 116.3 392.546C118.5 394.742 118.5 398.436 116.3 400.632Z" fill="#464FEB"/>
<path d="M600.798 250.283C600.798 259.069 593.598 266.257 584.798 266.257H556.898C548.098 266.257 540.898 259.069 540.898 250.283V220.134C540.898 211.348 548.098 204.16 556.898 204.16H584.798C593.598 204.16 600.798 211.348 600.798 220.134V250.283Z" fill="#6D84FC"/>
<path d="M590.397 225.624C578.597 223.228 570.897 214.842 570.897 214.842C570.897 214.842 563.197 223.228 551.397 225.624C551.397 225.624 547.997 242.596 570.897 255.474C593.697 242.596 590.397 225.624 590.397 225.624ZM567.197 239.9L568.997 233.411C568.597 232.912 568.297 232.313 568.297 231.714C568.297 230.316 569.397 229.218 570.797 229.218C572.197 229.218 573.297 230.316 573.297 231.714C573.297 232.412 572.997 233.011 572.597 233.411L574.397 239.9H567.197Z" fill="white"/>
<path d="M305.5 41.5328C308.814 41.5328 311.5 38.8509 311.5 35.5427C311.5 32.2346 308.814 29.5527 305.5 29.5527C302.186 29.5527 299.5 32.2346 299.5 35.5427C299.5 38.8509 302.186 41.5328 305.5 41.5328Z" fill="#6D84FC"/>
<path d="M289.902 26.2581C288.502 27.4561 290.502 29.3529 291.902 28.2548C300.102 21.1666 311.202 22.3646 319.402 28.4544C320.802 29.5526 322.202 27.1566 320.802 26.0584C311.402 19.1699 299.002 18.3713 289.902 26.2581Z" fill="#6D84FC"/>
<path d="M280.902 19.0685C279.502 20.2665 281.502 22.1633 282.902 21.0652C296.402 9.38464 314.702 11.1816 328.502 21.2648C329.902 22.363 331.302 19.967 329.902 18.8688C315.002 7.88713 295.302 6.58931 280.902 19.0685Z" fill="#6D84FC"/>
<path d="M336.3 11.1818C317.6 -2.69508 292.6 -4.49208 274.3 11.3814C272.9 12.5794 274.9 14.4763 276.3 13.3781C293.6 -1.59691 317.3 0.499599 334.9 13.5778C336.4 14.6759 337.7 12.2799 336.3 11.1818Z" fill="#6D84FC"/>
<path d="M529.399 161.628H522.799V155.039H519.299V161.628H512.699V165.122H519.299V171.711H522.799V165.122H529.399V161.628Z" fill="#6D84FC"/>
<path d="M17.2 282.628H10.6V276.039H7.1V282.628H0.5V286.122H7.1V292.711H10.6V286.122H17.2V282.628Z" fill="#6D84FC"/>
<path d="M101.2 8.38367H94.6V1.89453H91.1V8.38367H84.5V11.8778H91.1V18.4669H94.6V11.8778H101.2V8.38367Z" fill="#6D84FC"/>
<path d="M636.498 270.845H629.998V264.355H626.498V270.845H619.898V274.439H626.498V280.928H629.998V274.439H636.498V270.845Z" fill="#6D84FC"/>
<path d="M29.291 154.742V141.673H34.2001C35.2058 141.673 36.0495 141.848 36.7313 142.196C37.4174 142.545 37.9352 143.035 38.2846 143.664C38.6383 144.289 38.8151 145.019 38.8151 145.853C38.8151 146.69 38.6362 147.418 38.2782 148.035C37.9245 148.648 37.4025 149.122 36.7122 149.458C36.0218 149.79 35.1738 149.956 34.1681 149.956H30.6717V147.99H33.8485C34.4366 147.99 34.9181 147.909 35.2931 147.748C35.6681 147.582 35.9451 147.341 36.1241 147.027C36.3073 146.707 36.3989 146.316 36.3989 145.853C36.3989 145.389 36.3073 144.993 36.1241 144.666C35.9409 144.334 35.6617 144.083 35.2867 143.913C34.9117 143.738 34.4281 143.652 33.8357 143.652H31.6624V154.742H29.291ZM36.0538 148.82L39.2945 154.742H36.6482L33.465 148.82H36.0538ZM40.998 154.742V141.673H49.5122V143.658H43.3695V147.206H49.0712V149.19H43.3695V152.757H49.5634V154.742H40.998ZM53.6127 154.742H51.0815L55.6901 141.673H58.6177L63.2328 154.742H60.7015L57.2051 144.353H57.1028L53.6127 154.742ZM53.6958 149.618H60.5992V151.519H53.6958V149.618ZM75.547 146.082H73.1564C73.0882 145.691 72.9625 145.345 72.7793 145.042C72.596 144.736 72.3681 144.476 72.0953 144.264C71.8226 144.051 71.5115 143.891 71.1621 143.785C70.8169 143.675 70.444 143.62 70.0435 143.62C69.3318 143.62 68.7011 143.798 68.1514 144.156C67.6017 144.508 67.1713 145.027 66.8602 145.712C66.5492 146.393 66.3936 147.225 66.3936 148.208C66.3936 149.207 66.5492 150.05 66.8602 150.735C67.1756 151.416 67.606 151.93 68.1514 152.279C68.7011 152.624 69.3297 152.795 70.0371 152.795C70.4291 152.795 70.7956 152.744 71.1365 152.643C71.4817 152.536 71.7906 152.381 72.0634 152.176C72.3404 151.973 72.5726 151.721 72.7601 151.424C72.9519 151.126 73.084 150.786 73.1564 150.402L75.547 150.415C75.4575 151.036 75.2636 151.619 74.9654 152.164C74.6713 152.708 74.2857 153.19 73.8084 153.606C73.3311 154.019 72.7729 154.342 72.1337 154.576C71.4945 154.806 70.785 154.921 70.0051 154.921C68.8546 154.921 67.8276 154.655 66.9242 154.123C66.0208 153.591 65.3091 152.823 64.7892 151.819C64.2693 150.816 64.0094 149.612 64.0094 148.208C64.0094 146.799 64.2715 145.595 64.7956 144.596C65.3198 143.592 66.0335 142.824 66.9369 142.292C67.8404 141.76 68.8631 141.494 70.0051 141.494C70.7338 141.494 71.4114 141.596 72.0378 141.801C72.6642 142.004 73.2225 142.305 73.7125 142.7C74.2026 143.091 74.6053 143.573 74.9206 144.143C75.2402 144.709 75.449 145.355 75.547 146.082ZM77.1434 143.658V141.673H87.588V143.658H83.5419V154.742H81.1896V143.658H77.1434ZM40.0488 163.636V176.705H37.9394L31.7711 167.803H31.6624V176.705H29.291V163.636H31.4132L37.5751 172.544H37.6901V163.636H40.0488ZM44.3139 176.705H41.7826L46.3913 163.636H49.3189L53.9339 176.705H51.4027L47.9062 166.317H47.804L44.3139 176.705ZM44.397 171.581H51.3004V173.483H44.397V171.581ZM53.5009 165.621V163.636H63.9455V165.621H59.8993V176.705H57.547V165.621H53.5009ZM68.3304 163.636V176.705H65.959V163.636H68.3304ZM72.6498 163.636L76.0568 173.923H76.191L79.5916 163.636H82.1996L77.5845 176.705H74.6569L70.0483 163.636H72.6498ZM83.9238 176.705V163.636H92.438V165.621H86.2953V169.169H91.997V171.154H86.2953V174.721H92.4891V176.705H83.9238Z" fill="#FFD740"/>
<path d="M519.786 433.437H523.351V447.364C523.344 448.641 523.073 449.74 522.537 450.662C522.001 451.577 521.252 452.284 520.29 452.78C519.334 453.271 518.22 453.515 516.947 453.515C515.785 453.515 514.738 453.309 513.808 452.896C512.885 452.477 512.152 451.858 511.609 451.039C511.067 450.221 510.795 449.201 510.795 447.983H514.37C514.377 448.518 514.493 448.98 514.719 449.366C514.951 449.753 515.271 450.05 515.678 450.256C516.085 450.462 516.553 450.565 517.083 450.565C517.658 450.565 518.145 450.446 518.546 450.208C518.946 449.963 519.25 449.602 519.456 449.124C519.669 448.647 519.779 448.06 519.786 447.364V433.437ZM538.033 438.882C537.942 438.037 537.561 437.38 536.89 436.909C536.224 436.439 535.359 436.203 534.293 436.203C533.544 436.203 532.901 436.316 532.365 436.541C531.829 436.767 531.419 437.073 531.135 437.46C530.851 437.847 530.706 438.288 530.699 438.786C530.699 439.198 530.793 439.555 530.98 439.859C531.174 440.162 531.435 440.42 531.765 440.633C532.094 440.839 532.459 441.013 532.859 441.155C533.26 441.296 533.664 441.416 534.07 441.513L535.931 441.977C536.68 442.151 537.4 442.387 538.091 442.683C538.788 442.98 539.412 443.354 539.961 443.805C540.516 444.257 540.955 444.802 541.278 445.44C541.601 446.077 541.763 446.825 541.763 447.683C541.763 448.844 541.466 449.866 540.871 450.75C540.277 451.626 539.418 452.313 538.294 452.809C537.177 453.299 535.824 453.544 534.235 453.544C532.692 453.544 531.351 453.305 530.215 452.828C529.084 452.351 528.2 451.655 527.56 450.74C526.927 449.824 526.585 448.708 526.533 447.393H530.069C530.121 448.083 530.334 448.657 530.709 449.114C531.083 449.573 531.571 449.914 532.172 450.14C532.779 450.365 533.457 450.478 534.206 450.478C534.988 450.478 535.672 450.362 536.26 450.131C536.854 449.892 537.319 449.563 537.655 449.143C537.991 448.718 538.162 448.222 538.168 447.654C538.162 447.139 538.01 446.712 537.713 446.378C537.416 446.036 536.999 445.752 536.463 445.526C535.934 445.295 535.314 445.088 534.603 444.907L532.346 444.327C530.712 443.908 529.42 443.273 528.471 442.422C527.528 441.564 527.056 440.426 527.056 439.007C527.056 437.84 527.373 436.819 528.006 435.941C528.645 435.065 529.514 434.385 530.612 433.901C531.71 433.411 532.953 433.166 534.342 433.166C535.75 433.166 536.983 433.411 538.042 433.901C539.108 434.385 539.945 435.059 540.552 435.922C541.159 436.78 541.472 437.766 541.491 438.882H538.033Z" fill="#FFD740"/>
<path d="M536.436 61.8982V47.377H541.89C543.008 47.377 543.945 47.585 544.703 48.0009C545.465 48.4169 546.04 48.9889 546.429 49.7169C546.822 50.4401 547.018 51.2626 547.018 52.1843C547.018 53.1156 546.822 53.9427 546.429 54.666C546.036 55.3892 545.456 55.9588 544.689 56.3748C543.921 56.7861 542.977 56.9916 541.855 56.9916H538.24V54.829H541.5C542.153 54.829 542.688 54.7156 543.105 54.4887C543.521 54.2619 543.829 53.9499 544.028 53.5528C544.232 53.1557 544.333 52.6996 544.333 52.1843C544.333 51.6691 544.232 51.2153 544.028 50.8229C543.829 50.4307 543.519 50.1258 543.098 49.9083C542.681 49.6861 542.144 49.575 541.485 49.575H539.071V61.8982H536.436ZM549.554 61.8982H546.741L551.862 47.377H555.115L560.242 61.8982H557.43L553.545 50.355H553.431L549.554 61.8982ZM549.646 56.2046H557.316V58.3176H549.646V56.2046ZM562.158 61.8982V47.377H567.613C568.73 47.377 569.668 47.585 570.425 48.0009C571.188 48.4169 571.763 48.9889 572.151 49.7169C572.544 50.4401 572.741 51.2626 572.741 52.1843C572.741 53.1156 572.544 53.9427 572.151 54.666C571.758 55.3892 571.178 55.9588 570.411 56.3748C569.644 56.7861 568.7 56.9916 567.577 56.9916H563.962V54.829H567.222C567.876 54.829 568.411 54.7156 568.827 54.4887C569.244 54.2619 569.552 53.9499 569.751 53.5528C569.954 53.1557 570.056 52.6996 570.056 52.1843C570.056 51.6691 569.954 51.2153 569.751 50.8229C569.552 50.4307 569.242 50.1258 568.82 49.9083C568.404 49.6861 567.866 49.575 567.208 49.575H564.793V61.8982H562.158ZM575.029 61.8982V47.377H584.49V49.5822H577.664V53.5244H584V55.7295H577.664V59.6931H584.546V61.8982H575.029ZM587.178 61.8982V47.377H592.632C593.75 47.377 594.687 47.5708 595.445 47.9584C596.207 48.346 596.782 48.8896 597.171 49.5893C597.564 50.2841 597.76 51.0948 597.76 52.0212C597.76 52.9525 597.561 53.7608 597.164 54.4462C596.771 55.1268 596.191 55.654 595.424 56.0273C594.657 56.396 593.714 56.5804 592.597 56.5804H588.712V54.3966H592.242C592.895 54.3966 593.43 54.3067 593.847 54.1271C594.264 53.9427 594.571 53.6757 594.77 53.3259C594.974 52.9713 595.076 52.5365 595.076 52.0212C595.076 51.506 594.974 51.0664 594.77 50.7024C594.567 50.3337 594.256 50.0548 593.84 49.8657C593.423 49.6719 592.886 49.575 592.228 49.575H589.813V61.8982H587.178ZM594.692 55.3183L598.293 61.8982H595.353L591.816 55.3183H594.692Z" fill="#FF4081"/>
<path d="M130 487.141V484.539C137.333 470.55 161 476.731 161 484.539V487.141M130 487.141C133 497.877 156.667 498.202 161 487.141M130 487.141V497.551M161 487.141V496.577V496.901M130 497.551V507.313C137.333 517.397 157.333 515.77 161 506.012V496.901M130 497.551C136.333 507.313 155 507.313 161 496.901" stroke="#FFD740" stroke-width="4"/>
<path d="M111.012 473.211V461.594H118.716V463.619H113.472V466.387H118.205V468.412H113.472V473.211H111.012ZM122.831 461.594V473.211H120.371V461.594H122.831ZM124.855 473.211V461.594H129.446C130.325 461.594 131.075 461.751 131.696 462.065C132.321 462.375 132.796 462.815 133.122 463.386C133.452 463.953 133.616 464.621 133.616 465.389C133.616 466.16 133.45 466.824 133.116 467.38C132.783 467.932 132.3 468.355 131.668 468.651C131.039 468.945 130.277 469.093 129.384 469.093H126.31V467.119H128.986C129.455 467.119 129.846 467.054 130.156 466.926C130.467 466.798 130.698 466.605 130.849 466.347C131.005 466.09 131.082 465.77 131.082 465.389C131.082 465.003 131.005 464.678 130.849 464.414C130.698 464.148 130.465 463.948 130.151 463.812C129.84 463.672 129.448 463.602 128.974 463.602H127.315V473.211H124.855ZM131.139 467.925L134.031 473.211H131.315L128.486 467.925H131.139ZM135.355 473.211V461.594H143.196V463.619H137.815V466.387H142.793V468.412H137.815V471.186H143.219V473.211H135.355ZM145.152 473.211V461.594H149.811C150.667 461.594 151.381 461.721 151.953 461.974C152.525 462.227 152.955 462.579 153.243 463.029C153.531 463.475 153.675 463.989 153.675 464.572C153.675 465.026 153.584 465.425 153.402 465.768C153.22 466.109 152.97 466.389 152.652 466.608C152.338 466.824 151.978 466.977 151.572 467.068V467.181C152.016 467.2 152.43 467.325 152.817 467.555C153.207 467.786 153.523 468.109 153.766 468.526C154.008 468.938 154.129 469.429 154.129 470C154.129 470.617 153.976 471.167 153.669 471.652C153.366 472.132 152.917 472.511 152.322 472.792C151.728 473.071 150.995 473.211 150.124 473.211H145.152ZM147.612 471.203H149.618C150.304 471.203 150.804 471.072 151.118 470.812C151.432 470.546 151.589 470.195 151.589 469.757C151.589 469.435 151.512 469.152 151.357 468.906C151.201 468.66 150.98 468.467 150.692 468.327C150.408 468.187 150.069 468.117 149.675 468.117H147.612V471.203ZM147.612 466.455H149.436C149.773 466.455 150.072 466.396 150.334 466.279C150.599 466.159 150.807 465.988 150.959 465.768C151.114 465.55 151.192 465.286 151.192 464.981C151.192 464.56 151.042 464.222 150.743 463.965C150.447 463.708 150.027 463.579 149.482 463.579H147.612V466.455ZM157.736 473.211H155.099L159.116 461.594H162.287L166.298 473.211H163.662L160.747 464.249H160.656L157.736 473.211ZM157.571 468.645H163.798V470.562H157.571V468.645ZM173.746 464.935C173.7 464.477 173.505 464.122 173.161 463.869C172.816 463.615 172.348 463.488 171.757 463.488C171.356 463.488 171.017 463.545 170.74 463.659C170.464 463.769 170.251 463.921 170.104 464.118C169.96 464.315 169.888 464.537 169.888 464.787C169.88 464.996 169.924 465.177 170.018 465.332C170.117 465.487 170.251 465.622 170.422 465.734C170.592 465.844 170.789 465.941 171.013 466.024C171.236 466.104 171.475 466.172 171.729 466.229L172.774 466.478C173.282 466.591 173.748 466.743 174.172 466.931C174.596 467.121 174.964 467.354 175.274 467.629C175.585 467.906 175.825 468.23 175.996 468.605C176.17 468.979 176.259 469.408 176.263 469.892C176.259 470.603 176.077 471.22 175.717 471.741C175.361 472.26 174.846 472.663 174.172 472.95C173.501 473.234 172.693 473.376 171.746 473.376C170.806 473.376 169.988 473.232 169.291 472.944C168.598 472.657 168.056 472.232 167.666 471.668C167.28 471.1 167.077 470.4 167.058 469.564H169.439C169.465 469.953 169.577 470.278 169.774 470.539C169.975 470.796 170.242 470.992 170.575 471.123C170.912 471.252 171.293 471.316 171.717 471.316C172.134 471.316 172.496 471.256 172.803 471.134C173.113 471.014 173.354 470.846 173.524 470.63C173.695 470.415 173.78 470.167 173.78 469.886C173.78 469.626 173.702 469.406 173.547 469.229C173.395 469.051 173.172 468.9 172.876 468.775C172.585 468.651 172.227 468.537 171.803 468.435L170.536 468.117C169.554 467.879 168.78 467.506 168.212 466.999C167.643 466.493 167.361 465.81 167.365 464.952C167.361 464.249 167.549 463.634 167.928 463.109C168.31 462.583 168.835 462.172 169.501 461.878C170.168 461.582 170.926 461.436 171.774 461.436C172.638 461.436 173.392 461.582 174.036 461.878C174.683 462.172 175.187 462.583 175.547 463.109C175.907 463.634 176.092 464.243 176.104 464.935H173.746ZM177.918 473.211V461.594H185.759V463.619H180.378V466.387H185.355V468.412H180.378V471.186H185.781V473.211H177.918Z" fill="#FFD740"/>
</svg>
